<?xml version="1.0" encoding="UTF-8" standalone="no"?>
<!-- Created with Inkscape (http://www.inkscape.org/) -->

<svg
   xmlns:dc="http://purl.org/dc/elements/1.1/"
   xmlns:cc="http://creativecommons.org/ns#"
   xmlns:rdf="http://www.w3.org/1999/02/22-rdf-syntax-ns#"
   xmlns:svg="http://www.w3.org/2000/svg"
   xmlns="http://www.w3.org/2000/svg"
   xmlns:xlink="http://www.w3.org/1999/xlink"
   xmlns:sodipodi="http://sodipodi.sourceforge.net/DTD/sodipodi-0.dtd"
   xmlns:inkscape="http://www.inkscape.org/namespaces/inkscape"
   width="512"
   height="256"
   id="svg2"
   version="1.1"
   inkscape:version="0.48.4 r9939"
   sodipodi:docname="stateful-better.svg">
  <defs
     id="defs4" />
  <sodipodi:namedview
     id="base"
     pagecolor="#ffffff"
     bordercolor="#666666"
     borderopacity="1.0"
     inkscape:pageopacity="0.0"
     inkscape:pageshadow="2"
     inkscape:zoom="3.3007812"
     inkscape:cx="256"
     inkscape:cy="128"
     inkscape:document-units="px"
     inkscape:current-layer="layer1"
     showgrid="false"
     showguides="true"
     inkscape:guide-bbox="true"
     inkscape:window-width="1920"
     inkscape:window-height="1052"
     inkscape:window-x="1920"
     inkscape:window-y="0"
     inkscape:window-maximized="1" />
  <metadata
     id="metadata7">
    <rdf:RDF>
      <cc:Work
         rdf:about="">
        <dc:format>image/svg+xml</dc:format>
        <dc:type
           rdf:resource="http://purl.org/dc/dcmitype/StillImage" />
        <dc:title />
      </cc:Work>
    </rdf:RDF>
  </metadata>
  <g
     inkscape:label="Network"
     inkscape:groupmode="layer"
     id="layer1"
     transform="translate(0,-796.36218)"
     style="display:inline">
    <path
       style="fill:none;stroke:#000000;stroke-width:1px;stroke-linecap:butt;stroke-linejoin:miter;stroke-opacity:1"
       d="m 228,844.36218 44,0"
       id="path3823"
       inkscape:connector-curvature="0"
       sodipodi:nodetypes="cc" />
    <path
       sodipodi:nodetypes="cc"
       inkscape:connector-curvature="0"
       id="path3827"
       d="m 228,884.36218 44,0"
       style="fill:none;stroke:#000000;stroke-width:1px;stroke-linecap:butt;stroke-linejoin:miter;stroke-opacity:1" />
    <path
       style="fill:none;stroke:#000000;stroke-width:1px;stroke-linecap:butt;stroke-linejoin:miter;stroke-opacity:1"
       d="m 72,924.36218 368,0"
       id="path3829"
       inkscape:connector-curvature="0"
       sodipodi:nodetypes="cc" />
    <path
       sodipodi:nodetypes="cc"
       inkscape:connector-curvature="0"
       id="path3831"
       d="m 228,964.36218 44,0"
       style="fill:none;stroke:#000000;stroke-width:1px;stroke-linecap:butt;stroke-linejoin:miter;stroke-opacity:1" />
    <path
       style="fill:none;stroke:#000000;stroke-width:1px;stroke-linecap:butt;stroke-linejoin:miter;stroke-opacity:1"
       d="m 228,1004.3622 44,0"
       id="path3833"
       inkscape:connector-curvature="0"
       sodipodi:nodetypes="cc" />
    <g
       id="g3141"
       style="display:inline"
       transform="matrix(0.72707935,0,0,0.72707935,192.98127,38.806318)">
      <rect
         style="fill:#666666;stroke:#000000;stroke-width:1.37536561;stroke-miterlimit:4;stroke-dasharray:none"
         id="rect3143"
         width="44"
         height="29"
         x="27.5"
         y="163.5"
         transform="translate(0,924.36218)" />
      <rect
         style="fill:#666666;stroke:#000000;stroke-width:1.69861925;stroke-miterlimit:4;stroke-dasharray:none"
         id="rect3145"
         width="44.17627"
         height="19.089033"
         x="1313.7159"
         y="1703.3608"
         transform="matrix(1,0,-0.75510134,0.65560809,0,0)" />
      <rect
         transform="translate(0,924.36218)"
         style="fill:#f9f9f9;stroke:#000000;stroke-width:1.37536573;stroke-miterlimit:4;stroke-dasharray:none"
         id="rect3147"
         width="36.125"
         height="20.25"
         x="31.125"
         y="167.875" />
    </g>
    <g
       transform="translate(316.57229,702.15207)"
       style="display:inline"
       id="g4244">
      <path
         inkscape:connector-curvature="0"
         id="rect4226"
         d="m 30,194.625 -30,9 0,40 30,-9 20,6 0,-40 -20,-6 z"
         style="fill:#e3dedb;stroke:#000000;stroke-width:1;stroke-miterlimit:4;stroke-opacity:1;stroke-dasharray:none;stroke-dashoffset:0;display:inline" />
      <rect
         transform="matrix(1,0.3,0,1,0,-796.36218)"
         y="1000"
         x="0"
         height="40"
         width="20"
         id="rect4208"
         style="fill:#ffe680;stroke:#000000;stroke-width:1.14458966;stroke-miterlimit:4;stroke-opacity:1;stroke-dasharray:none;stroke-dashoffset:0;display:inline" />
      <rect
         style="fill:#e3dedb;stroke:#000000;stroke-width:1;stroke-miterlimit:4;stroke-opacity:1;stroke-dasharray:none;stroke-dashoffset:0;display:inline"
         id="rect4210"
         width="30"
         height="40"
         x="20"
         y="1012"
         transform="matrix(1,-0.3,0,1,0,-796.36218)" />
      <rect
         style="fill:#e3dedb;stroke:#000000;stroke-width:1;stroke-miterlimit:4;stroke-opacity:1;stroke-dasharray:none;stroke-dashoffset:0;display:inline"
         id="rect4234"
         width="20"
         height="40"
         x="0"
         y="1000"
         transform="matrix(1,0.3,0,1,0,-796.36218)" />
      <rect
         transform="matrix(1,0.3,0,1,0,0)"
         y="210"
         x="2.5"
         height="3"
         width="15"
         id="rect4236"
         style="fill:none;stroke:#000000;stroke-width:1;stroke-miterlimit:4;stroke-opacity:1;stroke-dasharray:none;stroke-dashoffset:0;display:inline" />
      <rect
         style="fill:none;stroke:#000000;stroke-width:1;stroke-miterlimit:4;stroke-opacity:1;stroke-dasharray:none;stroke-dashoffset:0;display:inline"
         id="rect4238"
         width="15"
         height="3"
         x="2.5"
         y="216"
         transform="matrix(1,0.3,0,1,0,0)" />
      <rect
         transform="matrix(1,0.3,0,1,0,0)"
         y="239"
         x="2.5"
         height="2"
         width="15"
         id="rect4240"
         style="fill:none;stroke:#000000;stroke-width:1;stroke-miterlimit:4;stroke-opacity:1;stroke-dasharray:none;stroke-dashoffset:0;display:inline" />
      <path
         transform="matrix(0.71302118,0,0,1,2.0088518,0)"
         d="m 12,227 c 0,1.38071 -1.119288,2.5 -2.5,2.5 -1.3807119,0 -2.5,-1.11929 -2.5,-2.5 0,-1.38071 1.1192881,-2.5 2.5,-2.5 1.380712,0 2.5,1.11929 2.5,2.5 z"
         sodipodi:ry="2.5"
         sodipodi:rx="2.5"
         sodipodi:cy="227"
         sodipodi:cx="9.5"
         id="path4242"
         style="fill:none;stroke:#000000;stroke-width:1.18426466;stroke-miterlimit:4;stroke-opacity:1;stroke-dasharray:none;stroke-dashoffset:0"
         sodipodi:type="arc" />
    </g>
    <path
       style="fill:#eef4d7;fill-opacity:1;stroke:#000000;stroke-width:1;stroke-miterlimit:4;stroke-dasharray:none;display:inline"
       d="m 441.5,877.86217 c -9.07414,0 -16.4507,7.10988 -16.9375,16.0625 -8.95262,0.4868 -16.0625,7.86336 -16.0625,16.9375 0,5.78804 2.89402,10.92992 7.3125,14 -4.41848,3.0701 -7.3125,8.21196 -7.3125,14 0,9.38884 7.61116,17 17,17 2.49392,0 4.86628,-0.5353 7,-1.5 -0.004,0.1662 0,0.33256 0,0.5 0,9.38881 7.61116,17.00001 17,17.00001 5.77458,0 10.86508,-2.9114 13.9375,-7.3125 2.82074,2.0809 6.28828,3.3125 10.0625,3.3125 9.38884,0 17,-7.6112 17,-17.00001 0,-1.02262 -0.1394,-2.02708 -0.3125,-3 9.07014,-0.3607 16.3125,-7.8414 16.3125,-17 0,-5.02766 -2.21822,-9.5126 -5.6875,-12.625 1.07432,-2.2296 1.6875,-4.73438 1.6875,-7.375 0,-9.38884 -7.61116,-17 -17,-17 -1.02262,0 -2.0271,0.1394 -3,0.3125 -0.36072,-9.07014 -7.8414,-16.3125 -17,-16.3125 -4.69442,0 -8.9236,1.9236 -12,5 -3.0764,-3.0764 -7.30558,-5 -12,-5 z"
       id="path4188"
       inkscape:connector-curvature="0" />
    <use
       x="0"
       y="0"
       xlink:href="#g3141"
       id="use3813"
       transform="translate(0,40)"
       width="512"
       height="256" />
    <use
       x="0"
       y="0"
       xlink:href="#g3141"
       id="use3817"
       transform="translate(0,120)"
       width="512"
       height="256" />
    <use
       height="256"
       width="512"
       transform="translate(0,160)"
       id="use3819"
       xlink:href="#g3141"
       y="0"
       x="0" />
    <text
       xml:space="preserve"
       style="font-size:18px;font-style:normal;font-weight:normal;line-height:125%;letter-spacing:0px;word-spacing:0px;fill:#000000;fill-opacity:1;stroke:none;font-family:Sans"
       x="436.2334"
       y="930.36218"
       id="text3343"
       sodipodi:linespacing="125%"><tspan
         sodipodi:role="line"
         id="tspan3345"
         x="436.2334"
         y="930.36218">IPv4</tspan></text>
    <path
       sodipodi:nodetypes="cc"
       inkscape:connector-curvature="0"
       id="path3411"
       d="m 272,1004.3622 0,-160.00002"
       style="fill:none;stroke:#000000;stroke-width:1px;stroke-linecap:butt;stroke-linejoin:miter;stroke-opacity:1" />
    <g
       id="g3150"
       transform="translate(-143.99997,151.09375)">
      <path
         sodipodi:nodetypes="cczccc"
         inkscape:connector-curvature="0"
         id="path3789"
         d="m 272.5,764.42468 0,19.84375 c 0,9.52811 12.85831,14.5 23.59375,14.5 10.73544,0 23.46875,-6.29616 23.46875,-16.15625 l 0,-18.1875 z"
         style="fill:#008080;stroke:#000000;stroke-width:1;stroke-miterlimit:4;stroke-opacity:1;stroke-dasharray:none" />
      <path
         transform="matrix(0.48595445,0,0,0.29851852,260.00403,694.04082)"
         d="m 122.85714,235.21933 c 0,26.82526 -21.74617,48.57143 -48.571427,48.57143 -26.82526,0 -48.57143,-21.74617 -48.57143,-48.57143 0,-26.82526 21.74617,-48.57143 48.57143,-48.57143 26.825257,0 48.571427,21.74617 48.571427,48.57143 z"
         sodipodi:ry="48.57143"
         sodipodi:rx="48.57143"
         sodipodi:cy="235.21933"
         sodipodi:cx="74.285713"
         id="path3771"
         style="fill:#008080;stroke:#000000;stroke-width:2.62552762;stroke-miterlimit:4;stroke-opacity:1;stroke-dasharray:none"
         sodipodi:type="arc" />
      <path
         sodipodi:nodetypes="cc"
         inkscape:connector-curvature="0"
         id="path3800"
         d="m 283,757.36218 25,10"
         style="fill:none;stroke:#ffffff;stroke-width:1px;stroke-linecap:butt;stroke-linejoin:miter;stroke-opacity:1" />
      <path
         sodipodi:nodetypes="cc"
         inkscape:connector-curvature="0"
         id="path3802"
         d="m 308,757.36218 -25,10"
         style="fill:none;stroke:#ffffff;stroke-width:1px;stroke-linecap:butt;stroke-linejoin:miter;stroke-opacity:1" />
    </g>
    <use
       x="0"
       y="0"
       xlink:href="#path4188"
       id="use3436"
       transform="translate(-398,0)"
       width="512"
       height="256" />
    <text
       sodipodi:linespacing="125%"
       id="text3438"
       y="930.36218"
       x="40.233398"
       style="font-size:18px;font-style:normal;font-weight:normal;line-height:125%;letter-spacing:0px;word-spacing:0px;fill:#000000;fill-opacity:1;stroke:none;font-family:Sans"
       xml:space="preserve"><tspan
         y="930.36218"
         x="40.233398"
         id="tspan3440"
         sodipodi:role="line">IPv6</tspan></text>
    <text
       xml:space="preserve"
       style="font-size:16px;font-style:normal;font-weight:normal;line-height:125%;letter-spacing:0px;word-spacing:0px;fill:#000000;fill-opacity:1;stroke:none;font-family:Sans"
       x="345.42969"
       y="932.36218"
       id="text3015"
       sodipodi:linespacing="125%"><tspan
         sodipodi:role="line"
         id="tspan3017"
         x="345.42969"
         y="932.36218">N</tspan></text>
    <text
       xml:space="preserve"
       style="font-size:16px;font-style:normal;font-weight:normal;line-height:125%;letter-spacing:0px;word-spacing:0px;fill:#ffffff;fill-opacity:1;stroke:none;font-family:Sans"
       x="146.42969"
       y="944.36218"
       id="text3019"
       sodipodi:linespacing="125%"><tspan
         sodipodi:role="line"
         id="tspan3021"
         x="146.42969"
         y="944.36218">R</tspan></text>
    <text
       xml:space="preserve"
       style="font-size:14px;font-style:normal;font-weight:normal;line-height:125%;letter-spacing:0px;word-spacing:0px;fill:#000000;fill-opacity:1;stroke:none;font-family:Sans"
       x="223.89062"
       y="845.36218"
       id="text3023"
       sodipodi:linespacing="125%"><tspan
         sodipodi:role="line"
         id="tspan3025"
         x="223.89062"
         y="845.36218">A</tspan></text>
    <text
       sodipodi:linespacing="125%"
       id="text3027"
       y="885.36218"
       x="223.89062"
       style="font-size:14px;font-style:normal;font-weight:normal;line-height:125%;letter-spacing:0px;word-spacing:0px;fill:#000000;fill-opacity:1;stroke:none;font-family:Sans"
       xml:space="preserve"><tspan
         y="885.36218"
         x="223.89062"
         id="tspan3029"
         sodipodi:role="line">B</tspan></text>
    <text
       xml:space="preserve"
       style="font-size:14px;font-style:normal;font-weight:normal;line-height:125%;letter-spacing:0px;word-spacing:0px;fill:#000000;fill-opacity:1;stroke:none;font-family:Sans"
       x="223.89062"
       y="965.36218"
       id="text3031"
       sodipodi:linespacing="125%"><tspan
         sodipodi:role="line"
         id="tspan3033"
         x="223.89062"
         y="965.36218">C</tspan></text>
    <text
       sodipodi:linespacing="125%"
       id="text3035"
       y="1005.3622"
       x="223.89062"
       style="font-size:14px;font-style:normal;font-weight:normal;line-height:125%;letter-spacing:0px;word-spacing:0px;fill:#000000;fill-opacity:1;stroke:none;font-family:Sans"
       xml:space="preserve"><tspan
         y="1005.3622"
         x="223.89062"
         id="tspan3037"
         sodipodi:role="line">D</tspan></text>
  </g>
</svg>
