<?xml version="1.0" encoding="UTF-8" standalone="no"?>
<!-- Created with Inkscape (http://www.inkscape.org/) -->

<svg
   xmlns:dc="http://purl.org/dc/elements/1.1/"
   xmlns:cc="http://creativecommons.org/ns#"
   xmlns:rdf="http://www.w3.org/1999/02/22-rdf-syntax-ns#"
   xmlns:svg="http://www.w3.org/2000/svg"
   xmlns="http://www.w3.org/2000/svg"
   xmlns:xlink="http://www.w3.org/1999/xlink"
   xmlns:sodipodi="http://sodipodi.sourceforge.net/DTD/sodipodi-0.dtd"
   xmlns:inkscape="http://www.inkscape.org/namespaces/inkscape"
   width="512"
   height="256"
   id="svg2"
   version="1.1"
   inkscape:version="0.48.3.1 r9886"
   sodipodi:docname="Static-network.svg">
  <defs
     id="defs4">
    <linearGradient
       id="linearGradient4241">
      <stop
         style="stop-color:#ffd42a;stop-opacity:1;"
         offset="0"
         id="stop4243" />
      <stop
         style="stop-color:#ff981a;stop-opacity:1;"
         offset="1"
         id="stop4245" />
    </linearGradient>
    <radialGradient
       inkscape:collect="always"
       xlink:href="#linearGradient4241"
       id="radialGradient4247"
       cx="129.01476"
       cy="60.59354"
       fx="129.01476"
       fy="60.59354"
       r="4.0921607"
       gradientTransform="matrix(0.81582875,0,0.00435253,0.58103824,23.400473,25.187667)"
       gradientUnits="userSpaceOnUse" />
    <radialGradient
       inkscape:collect="always"
       xlink:href="#linearGradient4241"
       id="radialGradient4480"
       gradientUnits="userSpaceOnUse"
       gradientTransform="matrix(0.70359289,0,0.00375374,0.50110317,37.423867,158.73408)"
       cx="129.01476"
       cy="60.59354"
       fx="129.01476"
       fy="60.59354"
       r="4.0921607" />
  </defs>
  <sodipodi:namedview
     id="base"
     pagecolor="#ffffff"
     bordercolor="#666666"
     borderopacity="1.0"
     inkscape:pageopacity="0.0"
     inkscape:pageshadow="2"
     inkscape:zoom="1.4142136"
     inkscape:cx="285.56547"
     inkscape:cy="115.78099"
     inkscape:document-units="px"
     inkscape:current-layer="layer7"
     showgrid="false"
     inkscape:window-width="1920"
     inkscape:window-height="1029"
     inkscape:window-x="0"
     inkscape:window-y="24"
     inkscape:window-maximized="1" />
  <metadata
     id="metadata7">
    <rdf:RDF>
      <cc:Work
         rdf:about="">
        <dc:format>image/svg+xml</dc:format>
        <dc:type
           rdf:resource="http://purl.org/dc/dcmitype/StillImage" />
        <dc:title />
      </cc:Work>
    </rdf:RDF>
  </metadata>
  <g
     inkscape:groupmode="layer"
     id="layer4"
     inkscape:label="Layer 5"
     style="display:none"
     transform="translate(0,128)">
    <path
       sodipodi:nodetypes="cc"
       style="fill:none;stroke:#000000;stroke-width:0.99512023px;stroke-linecap:butt;stroke-linejoin:miter;stroke-opacity:1;display:inline"
       d="m 128.49756,63.50244 103.00494,0"
       id="path3255"
       inkscape:connector-curvature="0" />
    <text
       sodipodi:linespacing="125%"
       id="text3257"
       y="124.68164"
       x="62.466858"
       style="font-size:10px;font-style:normal;font-weight:normal;text-align:center;line-height:125%;letter-spacing:0px;word-spacing:0px;text-anchor:middle;fill:#000000;fill-opacity:1;stroke:none;display:inline;font-family:Sans"
       xml:space="preserve"><tspan
         id="tspan3259"
         y="124.68164"
         x="62.466858"
         sodipodi:role="line">Internet (IPv4)</tspan></text>
    <text
       xml:space="preserve"
       style="font-size:10px;font-style:normal;font-weight:normal;text-align:center;line-height:125%;letter-spacing:0px;word-spacing:0px;text-anchor:middle;fill:#000000;fill-opacity:1;stroke:none;display:inline;font-family:Sans"
       x="192.46686"
       y="124.68164"
       id="text3261"
       sodipodi:linespacing="125%"><tspan
         sodipodi:role="line"
         x="192.46686"
         y="124.68164"
         id="tspan3263">Your network (IPv6)</tspan></text>
    <g
       id="g3265"
       style="display:inline"
       transform="matrix(0.72707937,0,0,0.72707937,196.98127,-743.55588)">
      <rect
         style="fill:#666666;stroke:#000000;stroke-width:1.37536561;stroke-miterlimit:4;stroke-dasharray:none"
         id="rect3267"
         width="44"
         height="29"
         x="27.5"
         y="163.5"
         transform="translate(0,924.36218)" />
      <rect
         style="fill:#666666;stroke:#000000;stroke-width:1.69861925;stroke-miterlimit:4;stroke-dasharray:none"
         id="rect3269"
         width="44.17627"
         height="19.089033"
         x="1313.7159"
         y="1703.3608"
         transform="matrix(1,0,-0.75510134,0.65560809,0,0)" />
      <rect
         style="fill:#f9f9f9;stroke:#000000;stroke-width:1.37536561;stroke-miterlimit:4;stroke-dasharray:none"
         id="rect3271"
         width="36.125"
         height="20.25"
         x="31.125"
         y="167.875"
         transform="translate(0,924.36218)" />
    </g>
    <g
       transform="matrix(0.72707937,0,0,0.72707937,-3.018731,-743.55588)"
       style="display:inline"
       id="g3273">
      <rect
         transform="translate(0,924.36218)"
         y="163.5"
         x="27.5"
         height="29"
         width="44"
         id="rect3275"
         style="fill:#666666;stroke:#000000;stroke-width:1.37536561;stroke-miterlimit:4;stroke-dasharray:none" />
      <rect
         transform="matrix(1,0,-0.75510134,0.65560809,0,0)"
         y="1703.3608"
         x="1313.7159"
         height="19.089033"
         width="44.17627"
         id="rect3277"
         style="fill:#666666;stroke:#000000;stroke-width:1.69861925;stroke-miterlimit:4;stroke-dasharray:none" />
      <rect
         transform="translate(0,924.36218)"
         y="167.875"
         x="31.125"
         height="20.25"
         width="36.125"
         id="rect3279"
         style="fill:#f9f9f9;stroke:#000000;stroke-width:1.37536561;stroke-miterlimit:4;stroke-dasharray:none" />
    </g>
    <path
       style="fill:none;stroke:#000000;stroke-width:1;stroke-linecap:butt;stroke-linejoin:miter;stroke-miterlimit:4;stroke-opacity:1;stroke-dasharray:4, 4;stroke-dashoffset:0;display:inline"
       d="m 128.5,-128.5 0,256"
       id="path3281"
       inkscape:connector-curvature="0"
       sodipodi:nodetypes="cc" />
    <g
       transform="matrix(0.72707937,0,0,0.72707937,92.98127,-743.55588)"
       style="display:inline"
       id="g3283">
      <rect
         transform="translate(0,924.36218)"
         y="163.5"
         x="27.5"
         height="29"
         width="44"
         id="rect3285"
         style="fill:#666666;stroke:#000000;stroke-width:1.37536561;stroke-miterlimit:4;stroke-dasharray:none" />
      <rect
         transform="matrix(1,0,-0.75510134,0.65560809,0,0)"
         y="1703.3608"
         x="1313.7159"
         height="19.089033"
         width="44.17627"
         id="rect3287"
         style="fill:#666666;stroke:#000000;stroke-width:1.69861925;stroke-miterlimit:4;stroke-dasharray:none" />
      <rect
         y="167.875"
         x="31.125"
         height="20.25"
         width="36.125"
         id="rect3289"
         style="fill:#f9f9f9;stroke:#000000;stroke-width:1.37536561;stroke-miterlimit:4;stroke-dasharray:none"
         transform="translate(0,924.36218)" />
    </g>
    <g
       style="display:inline"
       id="g3291"
       transform="matrix(0.86242718,0,0,0.86242718,17.242663,9.01155)">
      <path
         sodipodi:nodetypes="csssccscc"
         inkscape:connector-curvature="0"
         id="path3293"
         d="m 118.125,65 c 0,0 2.4375,-0.625 2.9375,-3.75 0.5,-3.125 -1.125,-11.3125 8.9375,-10.625 10.0625,0.6875 7.1875,10.0625 8.75,12.3125 1.5625,2.25 2.4375,2.0625 2.4375,2.0625 l -5.25,0 c 0,0 -1.1875,-3.375 -6.4375,-3.125 -5.25,0.25 -5.4375,3.125 -5.4375,3.125 z"
         style="fill:#000000;stroke:#000000;stroke-width:1px;stroke-linecap:butt;stroke-linejoin:miter;stroke-opacity:1" />
      <path
         transform="translate(1.0625,-0.5625)"
         d="m 129.5625,56.59375 c 0,1.777667 -1.69292,3.21875 -3.78125,3.21875 -2.08833,0 -3.78125,-1.441083 -3.78125,-3.21875 0,-1.777667 1.69292,-3.21875 3.78125,-3.21875 2.08833,0 3.78125,1.441083 3.78125,3.21875 z"
         sodipodi:ry="3.21875"
         sodipodi:rx="3.78125"
         sodipodi:cy="56.59375"
         sodipodi:cx="125.78125"
         id="path3295"
         style="fill:#ffffff;stroke:none"
         sodipodi:type="arc" />
      <path
         sodipodi:type="arc"
         style="fill:#ffffff;stroke:none"
         id="path3297"
         sodipodi:cx="125.78125"
         sodipodi:cy="56.59375"
         sodipodi:rx="3.78125"
         sodipodi:ry="3.21875"
         d="m 129.5625,56.59375 c 0,1.777667 -1.69292,3.21875 -3.78125,3.21875 -2.08833,0 -3.78125,-1.441083 -3.78125,-3.21875 0,-1.777667 1.69292,-3.21875 3.78125,-3.21875 2.08833,0 3.78125,1.441083 3.78125,3.21875 z"
         transform="matrix(1,0,0,0.62160432,7.1875,22.070292)" />
      <path
         d="m 129.1875,56.375 c 0,0.483249 -0.46171,0.875 -1.03125,0.875 -0.56954,0 -1.03125,-0.391751 -1.03125,-0.875 0,-0.483249 0.46171,-0.875 1.03125,-0.875 0.56954,0 1.03125,0.391751 1.03125,0.875 z"
         sodipodi:ry="0.875"
         sodipodi:rx="1.03125"
         sodipodi:cy="56.375"
         sodipodi:cx="128.15625"
         id="path3299"
         style="fill:#000000;stroke:#000000;stroke-width:1;stroke-miterlimit:4;stroke-dasharray:none;stroke-dashoffset:0"
         sodipodi:type="arc" />
      <path
         d="m 129.1875,56.375 c 0,0.483249 -0.46171,0.875 -1.03125,0.875 -0.56954,0 -1.03125,-0.391751 -1.03125,-0.875 0,-0.483249 0.46171,-0.875 1.03125,-0.875 0.56954,0 1.03125,0.391751 1.03125,0.875 z"
         sodipodi:ry="0.875"
         sodipodi:rx="1.03125"
         sodipodi:cy="56.375"
         sodipodi:cx="128.15625"
         id="path3301"
         style="fill:#000000;stroke:#000000;stroke-width:1;stroke-miterlimit:4;stroke-dasharray:none;stroke-dashoffset:0;display:inline"
         sodipodi:type="arc"
         transform="translate(2.6585048,0.82593336)" />
      <path
         inkscape:connector-curvature="0"
         id="path3303"
         d="m 125.52511,58.974902 c -0.80027,0.868652 2.41853,4.038838 3.35904,4.002562 0.94052,-0.03628 4.80733,-2.943918 4.16522,-3.799041 -0.64211,-0.855125 -6.72398,-1.072173 -7.52426,-0.203521 z"
         style="fill:url(#radialGradient4247);fill-opacity:1;stroke:none"
         sodipodi:nodetypes="zzzz" />
    </g>
    <g
       style="display:inline"
       transform="translate(8,0)"
       id="g3305">
      <path
         style="fill:none;stroke:#000000;stroke-width:1px;stroke-linecap:butt;stroke-linejoin:miter;stroke-opacity:1"
         d="m 80,53 c -2.144236,6.215249 -2.33247,12.842287 0,20"
         id="path3307"
         inkscape:connector-curvature="0"
         sodipodi:nodetypes="cc" />
      <path
         style="fill:none;stroke:#000000;stroke-width:1px;stroke-linecap:butt;stroke-linejoin:miter;stroke-opacity:1"
         d="m 95,60.5 c -0.448972,1.554424 -0.493403,3.209983 0,5"
         id="path3309"
         inkscape:connector-curvature="0"
         sodipodi:nodetypes="cc" />
      <path
         style="fill:none;stroke:#000000;stroke-width:1px;stroke-linecap:butt;stroke-linejoin:miter;stroke-opacity:1"
         d="m 90,58 c -1.029967,3.333333 -0.852119,6.666667 0,10"
         id="path3311"
         inkscape:connector-curvature="0"
         sodipodi:nodetypes="cc" />
      <path
         style="fill:none;stroke:#000000;stroke-width:1px;stroke-linecap:butt;stroke-linejoin:miter;stroke-opacity:1"
         d="m 85,55.5 c -1.252939,4.874706 -1.102071,9.889793 0,15"
         id="path3313"
         inkscape:connector-curvature="0"
         sodipodi:nodetypes="cc" />
    </g>
    <g
       style="display:inline"
       transform="matrix(-1,0,0,-1,151.32049,126)"
       id="g3315">
      <path
         sodipodi:nodetypes="cc"
         inkscape:connector-curvature="0"
         id="path3317"
         d="m 80,53 c -2.144236,6.215249 -2.33247,12.842287 0,20"
         style="fill:none;stroke:#000000;stroke-width:1px;stroke-linecap:butt;stroke-linejoin:miter;stroke-opacity:1" />
      <path
         sodipodi:nodetypes="cc"
         inkscape:connector-curvature="0"
         id="path3319"
         d="m 95,60.5 c -0.448972,1.554424 -0.493403,3.209983 0,5"
         style="fill:none;stroke:#000000;stroke-width:1px;stroke-linecap:butt;stroke-linejoin:miter;stroke-opacity:1" />
      <path
         sodipodi:nodetypes="cc"
         inkscape:connector-curvature="0"
         id="path3321"
         d="m 90,58 c -1.029967,3.333333 -0.852119,6.666667 0,10"
         style="fill:none;stroke:#000000;stroke-width:1px;stroke-linecap:butt;stroke-linejoin:miter;stroke-opacity:1" />
      <path
         sodipodi:nodetypes="cc"
         inkscape:connector-curvature="0"
         id="path3323"
         d="m 85,55.5 c -1.252939,4.874706 -1.102071,9.889793 0,15"
         style="fill:none;stroke:#000000;stroke-width:1px;stroke-linecap:butt;stroke-linejoin:miter;stroke-opacity:1" />
    </g>
    <text
       sodipodi:linespacing="125%"
       id="text3325"
       y="96.298714"
       x="268.15408"
       style="font-size:5px;font-style:normal;font-weight:normal;line-height:125%;letter-spacing:0px;word-spacing:0px;fill:#000000;fill-opacity:1;stroke:none;display:inline;font-family:Sans"
       xml:space="preserve"><tspan
         y="96.298714"
         x="268.15408"
         id="tspan3327"
         sodipodi:role="line">Address: fd13:54a9:078e:3c16::1</tspan><tspan
         id="tspan3329"
         y="102.54871"
         x="268.15408"
         sodipodi:role="line">Pool: 64:ff9b::</tspan></text>
    <text
       sodipodi:linespacing="125%"
       id="text3331"
       y="40.51495"
       x="-19.143658"
       style="font-size:5px;font-style:normal;font-weight:normal;text-align:end;line-height:125%;letter-spacing:0px;word-spacing:0px;text-anchor:end;fill:#000000;fill-opacity:1;stroke:none;display:inline;font-family:Sans"
       xml:space="preserve"><tspan
         y="40.51495"
         x="-19.143658"
         id="tspan3333"
         sodipodi:role="line">Address: 192.168.0.2</tspan><tspan
         id="tspan3335"
         y="46.76495"
         x="-19.143658"
         sodipodi:role="line">Pool: 192.168.2.1</tspan></text>
    <text
       xml:space="preserve"
       style="font-size:5px;font-style:normal;font-weight:normal;line-height:125%;letter-spacing:0px;word-spacing:0px;fill:#000000;fill-opacity:1;stroke:none;display:inline;font-family:Sans"
       x="-150.24591"
       y="76.298714"
       id="text3337"
       sodipodi:linespacing="125%"><tspan
         sodipodi:role="line"
         id="tspan3339"
         x="-150.24591"
         y="76.298714">Address: 192.168.0.1</tspan></text>
    <text
       xml:space="preserve"
       style="font-size:5px;font-style:normal;font-weight:normal;text-align:end;line-height:125%;letter-spacing:0px;word-spacing:0px;text-anchor:end;fill:#000000;fill-opacity:1;stroke:none;display:inline;font-family:Sans"
       x="443.25635"
       y="8.1149511"
       id="text3341"
       sodipodi:linespacing="125%"><tspan
         sodipodi:role="line"
         x="443.25635"
         y="8.1149511"
         id="tspan3343">Address: fd13:54a9:078e:3c16::2</tspan></text>
    <path
       sodipodi:nodetypes="csscsccsc"
       inkscape:connector-curvature="0"
       id="path3345"
       d="m 32.5,56.562499 c 0,0 -2.0625,-2.8125 -3.8125,-1.5625 -1.75,1.25 -1.75,6.625 0.9375,7.375 2.6875,0.75 2.625,-0.9375 2.625,-0.9375 0,0 -0.1875,1.0625 2.25,1.25 0.840987,0.06469 2.077888,-0.606781 2.342494,-1.691029 -1.335487,-0.472459 -0.846125,-2.721323 1.0965,-2.808713 0.295135,-0.993938 0.01294,-2.399167 -0.876494,-2.750258 -2.375,-0.9375 -4.5625,1.125 -4.5625,1.125 z"
       style="fill:#e6e6e6;stroke:#000000;stroke-width:1px;stroke-linecap:butt;stroke-linejoin:miter;stroke-opacity:1;display:inline" />
    <path
       sodipodi:nodetypes="ccc"
       inkscape:connector-curvature="0"
       id="path3347"
       d="m 34.875,51.749999 c 0.0731,1.13019 0.273026,2.823313 -2.25,2.8125 -0.856749,-1.807524 0.980648,-2.7114 2.25,-2.8125 z"
       style="fill:#cccccc;stroke:#000000;stroke-width:1px;stroke-linecap:butt;stroke-linejoin:miter;stroke-opacity:1;display:inline" />
    <rect
       y="53.621204"
       x="228.70485"
       height="8.485281"
       width="8.043335"
       id="rect3349"
       style="fill:#87decd;stroke:#000000;display:inline" />
    <path
       sodipodi:nodetypes="cscscscccc"
       inkscape:connector-curvature="0"
       id="path3351"
       d="m 236.6875,55.562499 c 0,0 -0.5625,-0.90625 -1.6875,-0.6875 -1.125,0.21875 -1.09375,1.28125 -1.09375,1.28125 0,0 -1.03125,-1.15625 -1.90625,-0.125 -0.875,1.03125 1.03125,2.0625 1.03125,2.0625 0,0 -1.25,1.15625 0.40625,2 1.65625,0.84375 1.84375,-0.34375 1.84375,-0.34375 0,0 0.66391,0.56502 1.5,0.8125 l -0.0937,-5 z"
       style="fill:#ffffff;stroke:#000000;stroke-width:1px;stroke-linecap:butt;stroke-linejoin:miter;stroke-opacity:1;display:inline" />
    <path
       sodipodi:nodetypes="cc"
       inkscape:connector-curvature="0"
       id="path3353"
       d="m 232.59394,53.665399 0,8.396893"
       style="fill:none;stroke:#000000;stroke-width:1px;stroke-linecap:butt;stroke-linejoin:miter;stroke-opacity:1;display:inline" />
    <path
       sodipodi:nodetypes="cc"
       inkscape:connector-curvature="0"
       id="path3355"
       d="m 228.83743,58.084816 8.17592,0"
       style="fill:none;stroke:#000000;stroke-width:1px;stroke-linecap:butt;stroke-linejoin:miter;stroke-opacity:1;display:inline" />
    <rect
       y="62.106487"
       x="227.42322"
       height="1.502602"
       width="10.606602"
       id="rect3357"
       style="fill:none;stroke:#000000;stroke-width:1;stroke-miterlimit:4;stroke-dasharray:none;stroke-dashoffset:0;display:inline" />
    <rect
       y="52.118603"
       x="227.33484"
       height="1.5026026"
       width="10.783359"
       id="rect3359"
       style="fill:none;stroke:#000000;stroke-width:1;stroke-miterlimit:4;stroke-dasharray:none;stroke-dashoffset:0;display:inline" />
    <path
       sodipodi:nodetypes="cccc"
       inkscape:connector-curvature="0"
       id="path3361"
       d="m 230.6273,53.599108 -1.92245,0 0,2.452776 c 1.25902,0 1.97191,-0.928177 1.92245,-2.452776 z"
       style="fill:#ffd42a;stroke:#000000;stroke-width:1px;stroke-linecap:butt;stroke-linejoin:miter;stroke-opacity:1;display:inline" />
    <g
       style="display:inline"
       id="g4254"
       transform="matrix(0.66,0,0,0.66,177.50785,-152.3556)">
      <path
         style="fill:#e3dedb;stroke:#000000;stroke-width:1.5151515;stroke-miterlimit:4;stroke-opacity:1;stroke-dasharray:none;stroke-dashoffset:0;display:inline"
         d="m 30,194.625 -30,9 0,40 30,-9 20,6 0,-40 -20,-6 z"
         id="path4256"
         inkscape:connector-curvature="0" />
      <rect
         style="fill:#ffe680;stroke:#000000;stroke-width:1.14458966;stroke-miterlimit:4;stroke-opacity:1;stroke-dasharray:none;stroke-dashoffset:0;display:inline"
         id="rect4258"
         width="20"
         height="40"
         x="0"
         y="1000"
         transform="matrix(1,0.3,0,1,0,-796.36218)" />
      <rect
         transform="matrix(1,-0.3,0,1,0,-796.36218)"
         y="1012"
         x="20"
         height="40"
         width="30"
         id="rect4260"
         style="fill:#e3dedb;stroke:#000000;stroke-width:1.5151515;stroke-miterlimit:4;stroke-opacity:1;stroke-dasharray:none;stroke-dashoffset:0;display:inline" />
      <rect
         transform="matrix(1,0.3,0,1,0,-796.36218)"
         y="1000"
         x="0"
         height="40"
         width="20"
         id="rect4262"
         style="fill:#e3dedb;stroke:#000000;stroke-width:1.5151515;stroke-miterlimit:4;stroke-opacity:1;stroke-dasharray:none;stroke-dashoffset:0;display:inline" />
      <rect
         style="fill:none;stroke:#000000;stroke-width:1.5151515;stroke-miterlimit:4;stroke-opacity:1;stroke-dasharray:none;stroke-dashoffset:0;display:inline"
         id="rect4264"
         width="15"
         height="3"
         x="2.5"
         y="210"
         transform="matrix(1,0.3,0,1,0,0)" />
      <rect
         transform="matrix(1,0.3,0,1,0,0)"
         y="216"
         x="2.5"
         height="3"
         width="15"
         id="rect4266"
         style="fill:none;stroke:#000000;stroke-width:1.5151515;stroke-miterlimit:4;stroke-opacity:1;stroke-dasharray:none;stroke-dashoffset:0;display:inline" />
      <rect
         style="fill:none;stroke:#000000;stroke-width:1.5151515;stroke-miterlimit:4;stroke-opacity:1;stroke-dasharray:none;stroke-dashoffset:0;display:inline"
         id="rect4268"
         width="15"
         height="2"
         x="2.5"
         y="239"
         transform="matrix(1,0.3,0,1,0,0)" />
      <path
         sodipodi:type="arc"
         style="fill:none;stroke:#000000;stroke-width:1.79434049;stroke-miterlimit:4;stroke-opacity:1;stroke-dasharray:none;stroke-dashoffset:0"
         id="path4270"
         sodipodi:cx="9.5"
         sodipodi:cy="227"
         sodipodi:rx="2.5"
         sodipodi:ry="2.5"
         d="m 12,227 c 0,1.38071 -1.119288,2.5 -2.5,2.5 -1.3807119,0 -2.5,-1.11929 -2.5,-2.5 0,-1.38071 1.1192881,-2.5 2.5,-2.5 1.380712,0 2.5,1.11929 2.5,2.5 z"
         transform="matrix(0.71302118,0,0,1,2.0088518,0)" />
    </g>
    <g
       transform="matrix(0.66,0,0,0.66,47.50785,-152.3556)"
       id="g4317"
       style="display:inline">
      <path
         inkscape:connector-curvature="0"
         id="path4319"
         d="m 30,194.625 -30,9 0,40 30,-9 20,6 0,-40 -20,-6 z"
         style="fill:#e3dedb;stroke:#000000;stroke-width:1.5151515;stroke-miterlimit:4;stroke-opacity:1;stroke-dasharray:none;stroke-dashoffset:0;display:inline" />
      <rect
         transform="matrix(1,0.3,0,1,0,-796.36218)"
         y="1000"
         x="0"
         height="40"
         width="20"
         id="rect4321"
         style="fill:#ffe680;stroke:#000000;stroke-width:1.14458966;stroke-miterlimit:4;stroke-opacity:1;stroke-dasharray:none;stroke-dashoffset:0;display:inline" />
      <rect
         style="fill:#e3dedb;stroke:#000000;stroke-width:1.5151515;stroke-miterlimit:4;stroke-opacity:1;stroke-dasharray:none;stroke-dashoffset:0;display:inline"
         id="rect4323"
         width="30"
         height="40"
         x="20"
         y="1012"
         transform="matrix(1,-0.3,0,1,0,-796.36218)" />
      <rect
         style="fill:#e3dedb;stroke:#000000;stroke-width:1.5151515;stroke-miterlimit:4;stroke-opacity:1;stroke-dasharray:none;stroke-dashoffset:0;display:inline"
         id="rect4325"
         width="20"
         height="40"
         x="0"
         y="1000"
         transform="matrix(1,0.3,0,1,0,-796.36218)" />
      <rect
         transform="matrix(1,0.3,0,1,0,0)"
         y="210"
         x="2.5"
         height="3"
         width="15"
         id="rect4327"
         style="fill:none;stroke:#000000;stroke-width:1.5151515;stroke-miterlimit:4;stroke-opacity:1;stroke-dasharray:none;stroke-dashoffset:0;display:inline" />
      <rect
         style="fill:none;stroke:#000000;stroke-width:1.5151515;stroke-miterlimit:4;stroke-opacity:1;stroke-dasharray:none;stroke-dashoffset:0;display:inline"
         id="rect4329"
         width="15"
         height="3"
         x="2.5"
         y="216"
         transform="matrix(1,0.3,0,1,0,0)" />
      <rect
         transform="matrix(1,0.3,0,1,0,0)"
         y="239"
         x="2.5"
         height="2"
         width="15"
         id="rect4331"
         style="fill:none;stroke:#000000;stroke-width:1.5151515;stroke-miterlimit:4;stroke-opacity:1;stroke-dasharray:none;stroke-dashoffset:0;display:inline" />
      <path
         transform="matrix(0.71302118,0,0,1,2.0088518,0)"
         d="m 12,227 c 0,1.38071 -1.119288,2.5 -2.5,2.5 -1.3807119,0 -2.5,-1.11929 -2.5,-2.5 0,-1.38071 1.1192881,-2.5 2.5,-2.5 1.380712,0 2.5,1.11929 2.5,2.5 z"
         sodipodi:ry="2.5"
         sodipodi:rx="2.5"
         sodipodi:cy="227"
         sodipodi:cx="9.5"
         id="path4333"
         style="fill:none;stroke:#000000;stroke-width:1.79434049;stroke-miterlimit:4;stroke-opacity:1;stroke-dasharray:none;stroke-dashoffset:0"
         sodipodi:type="arc" />
    </g>
  </g>
  <g
     inkscape:groupmode="layer"
     id="layer6"
     inkscape:label="Tutorial2"
     style="display:inline">
    <rect
       y="0"
       x="0"
       height="256"
       width="256"
       id="rect4382"
       style="fill:#d5e5ff;stroke:none" />
    <rect
       style="fill:#e9afaf;stroke:none"
       id="rect4376"
       width="256"
       height="256"
       x="256"
       y="0" />
  </g>
  <g
     inkscape:groupmode="layer"
     id="layer7"
     inkscape:label="Layer"
     style="display:inline">
    <path
       style="fill:none;stroke:#000000;stroke-width:2;stroke-linecap:butt;stroke-linejoin:miter;stroke-miterlimit:4;stroke-opacity:1;stroke-dasharray:none"
       d="m 53.5,70 96.5,0 0,64 -95.5,0"
       id="path4251"
       inkscape:connector-curvature="0"
       sodipodi:nodetypes="cccc" />
    <path
       style="fill:none;stroke:#000000;stroke-width:2;stroke-linecap:butt;stroke-linejoin:miter;stroke-miterlimit:4;stroke-opacity:1;stroke-dasharray:none"
       d="m 55.5,198 94.5,0 0,-64 106.5,0"
       id="path4253"
       inkscape:connector-curvature="0"
       sodipodi:nodetypes="cccc" />
    <path
       style="fill:none;stroke:#000000;stroke-width:2;stroke-linecap:butt;stroke-linejoin:miter;stroke-miterlimit:4;stroke-opacity:1;stroke-dasharray:none"
       d="M 257.5,134 423,134"
       id="path4225"
       inkscape:connector-curvature="0"
       sodipodi:nodetypes="cc" />
    <g
       id="g4175"
       transform="matrix(1.5,0,0,1.5,185.0548,-46.302855)">
      <rect
         y="64.274834"
         x="-101.72724"
         height="21.085302"
         width="31.991493"
         id="rect3422"
         style="fill:#666666;stroke:#000000;stroke-width:0.99999994;stroke-miterlimit:4;stroke-dasharray:none" />
      <rect
         transform="matrix(1,0,-0.75510134,0.65560809,0,0)"
         y="130.06128"
         x="-3.5135188"
         height="13.879242"
         width="32.119656"
         id="rect3424"
         style="fill:#666666;stroke:#000000;stroke-width:1.23503101;stroke-miterlimit:4;stroke-dasharray:none" />
      <rect
         y="67.455803"
         x="-99.091576"
         height="14.723357"
         width="26.265741"
         id="rect3426"
         style="fill:#f9f9f9;stroke:#000000;stroke-width:0.99999994;stroke-miterlimit:4;stroke-dasharray:none" />
    </g>
    <text
       xml:space="preserve"
       style="font-size:40px;font-style:normal;font-weight:normal;line-height:125%;letter-spacing:0px;word-spacing:0px;fill:#000000;fill-opacity:1;stroke:none;display:inline;font-family:Sans"
       x="338.79095"
       y="37.60672"
       id="text4288"
       sodipodi:linespacing="125%"><tspan
         sodipodi:role="line"
         id="tspan4290"
         x="338.79095"
         y="37.60672">IPv4</tspan></text>
    <text
       sodipodi:linespacing="125%"
       id="text4292"
       y="39.096954"
       x="75.18354"
       style="font-size:36px;font-style:normal;font-weight:normal;line-height:125%;letter-spacing:0px;word-spacing:0px;fill:#000000;fill-opacity:1;stroke:none;display:inline;font-family:Sans"
       xml:space="preserve"><tspan
         y="39.096954"
         x="75.18354"
         sodipodi:role="line"
         id="tspan4296">IPv6</tspan></text>
    <text
       xml:space="preserve"
       style="font-size:12px;font-style:normal;font-weight:normal;line-height:125%;letter-spacing:0px;word-spacing:0px;fill:#aa4400;fill-opacity:1;stroke:none;display:inline;font-family:Sans"
       x="289.13699"
       y="74.213043"
       id="text4320"
       sodipodi:linespacing="125%"><tspan
         sodipodi:role="line"
         id="tspan4322"
         x="289.13699"
         y="74.213043"
         style="font-size:12px;fill:#000000">1.2.3.1</tspan><tspan
         sodipodi:role="line"
         x="289.13699"
         y="89.213043"
         style="font-size:12px;fill:#aa4400"
         id="tspan4213">1.2.3.2</tspan><tspan
         id="tspan4324"
         sodipodi:role="line"
         x="289.13699"
         y="104.21304">1.2.3.4</tspan><tspan
         sodipodi:role="line"
         x="289.13699"
         y="119.21304"
         id="tspan4207">1.2.3.5</tspan></text>
    <path
       style="fill:#eef4d7;fill-opacity:1;stroke:#000000;stroke-width:2"
       d="m 437.20812,86.1986 c -9.07414,0 -16.4507,7.10988 -16.9375,16.0625 -8.95262,0.4868 -16.0625,7.86336 -16.0625,16.9375 0,5.78804 2.89402,10.92992 7.3125,14 -4.41848,3.0701 -7.3125,8.21196 -7.3125,14 0,9.38884 7.61116,17 17,17 2.49392,0 4.86628,-0.5353 7,-1.5 -0.004,0.1662 0,0.33256 0,0.5 0,9.38884 7.61116,17 17,17 5.77458,0 10.86508,-2.91138 13.9375,-7.3125 2.82074,2.08094 6.28828,3.3125 10.0625,3.3125 9.38884,0 17,-7.61116 17,-17 0,-1.02262 -0.1394,-2.02708 -0.3125,-3 9.07014,-0.3607 16.3125,-7.8414 16.3125,-17 0,-5.02766 -2.21822,-9.5126 -5.6875,-12.625 1.07432,-2.2296 1.6875,-4.73438 1.6875,-7.375 0,-9.38884 -7.61116,-17 -17,-17 -1.02262,0 -2.0271,0.1394 -3,0.3125 -0.36072,-9.07014 -7.8414,-16.3125 -17,-16.3125 -4.69442,0 -8.9236,1.9236 -12,5 -3.0764,-3.0764 -7.30558,-5 -12,-5 z"
       id="path4188"
       inkscape:connector-curvature="0" />
    <path
       style="fill:none;stroke:#000000;stroke-width:2;stroke-linecap:butt;stroke-linejoin:miter;stroke-miterlimit:4;stroke-opacity:1;stroke-dasharray:8,2;stroke-dashoffset:0"
       d="m 254.5,0.49612403 0,255.00775597"
       id="path4221"
       inkscape:connector-curvature="0" />
    <path
       inkscape:connector-curvature="0"
       id="path4223"
       d="m 258.498,0.49804899 0,255.00390101"
       style="fill:none;stroke:#000000;stroke-width:2;stroke-linecap:butt;stroke-linejoin:miter;stroke-miterlimit:4;stroke-opacity:1;stroke-dasharray:8,2;stroke-dashoffset:0" />
    <g
       style="display:inline"
       id="g3336"
       transform="matrix(1.5,0,0,1.5,67.635082,-157.81256)">
      <rect
         style="fill:#666666;stroke:#000000;stroke-width:0.99999994;stroke-miterlimit:4;stroke-dasharray:none"
         id="rect3290"
         width="31.991493"
         height="21.085302"
         x="112.97595"
         y="175.40627" />
      <rect
         style="fill:#666666;stroke:#000000;stroke-width:1.23503101;stroke-miterlimit:4;stroke-dasharray:none"
         id="rect3292"
         width="32.119656"
         height="13.879242"
         x="339.1861"
         y="299.57022"
         transform="matrix(1,0,-0.75510134,0.65560809,0,0)" />
      <rect
         style="fill:#f9f9f9;stroke:#000000;stroke-width:0.99999994;stroke-miterlimit:4;stroke-dasharray:none"
         id="rect3294"
         width="26.265741"
         height="14.723357"
         x="115.61162"
         y="178.58723" />
      <path
         style="fill:#000000;stroke:#000000;stroke-width:0.86242718px;stroke-linecap:butt;stroke-linejoin:miter;stroke-opacity:1"
         d="m 119.11687,193.06932 c 0,0 2.10217,-0.53902 2.53338,-3.23411 0.43122,-2.69508 -0.97023,-9.7562 7.70795,-9.16328 8.67817,0.59291 6.19869,8.67817 7.54623,10.61863 1.34755,1.94046 2.10217,1.77876 2.10217,1.77876 l -4.52774,0 c 0,0 -1.02413,-2.9107 -5.55188,-2.69509 -4.52774,0.21561 -4.68944,2.69509 -4.68944,2.69509 z"
         id="path3298"
         inkscape:connector-curvature="0"
         sodipodi:nodetypes="csssccscc" />
      <path
         sodipodi:type="arc"
         style="fill:#ffffff;stroke:none"
         id="path3300"
         sodipodi:cx="125.78125"
         sodipodi:cy="56.59375"
         sodipodi:rx="3.78125"
         sodipodi:ry="3.21875"
         d="m 129.5625,56.59375 c 0,1.777667 -1.69292,3.21875 -3.78125,3.21875 -2.08833,0 -3.78125,-1.441083 -3.78125,-3.21875 0,-1.777667 1.69292,-3.21875 3.78125,-3.21875 2.08833,0 3.78125,1.441083 3.78125,3.21875 z"
         transform="matrix(0.86242718,0,0,0.86242718,18.158992,136.52643)" />
      <path
         transform="matrix(0.86242718,0,0,0.53608846,23.441358,156.04557)"
         d="m 129.5625,56.59375 c 0,1.777667 -1.69292,3.21875 -3.78125,3.21875 -2.08833,0 -3.78125,-1.441083 -3.78125,-3.21875 0,-1.777667 1.69292,-3.21875 3.78125,-3.21875 2.08833,0 3.78125,1.441083 3.78125,3.21875 z"
         sodipodi:ry="3.21875"
         sodipodi:rx="3.78125"
         sodipodi:cy="56.59375"
         sodipodi:cx="125.78125"
         id="path3302"
         style="fill:#ffffff;stroke:none"
         sodipodi:type="arc" />
      <path
         transform="matrix(0.86242718,0,0,0.86242718,17.242663,137.01155)"
         sodipodi:type="arc"
         style="fill:#000000;stroke:#000000;stroke-width:1;stroke-miterlimit:4;stroke-dasharray:none;stroke-dashoffset:0"
         id="path3304"
         sodipodi:cx="128.15625"
         sodipodi:cy="56.375"
         sodipodi:rx="1.03125"
         sodipodi:ry="0.875"
         d="m 129.1875,56.375 c 0,0.483249 -0.46171,0.875 -1.03125,0.875 -0.56954,0 -1.03125,-0.391751 -1.03125,-0.875 0,-0.483249 0.46171,-0.875 1.03125,-0.875 0.56954,0 1.03125,0.391751 1.03125,0.875 z" />
      <path
         transform="matrix(0.86242718,0,0,0.86242718,19.53543,137.72386)"
         sodipodi:type="arc"
         style="fill:#000000;stroke:#000000;stroke-width:1;stroke-miterlimit:4;stroke-dasharray:none;stroke-dashoffset:0;display:inline"
         id="path3306"
         sodipodi:cx="128.15625"
         sodipodi:cy="56.375"
         sodipodi:rx="1.03125"
         sodipodi:ry="0.875"
         d="m 129.1875,56.375 c 0,0.483249 -0.46171,0.875 -1.03125,0.875 -0.56954,0 -1.03125,-0.391751 -1.03125,-0.875 0,-0.483249 0.46171,-0.875 1.03125,-0.875 0.56954,0 1.03125,0.391751 1.03125,0.875 z" />
      <path
         sodipodi:nodetypes="zzzz"
         style="fill:url(#radialGradient4480);fill-opacity:1;stroke:none"
         d="m 125.49893,187.87311 c -0.69017,0.74915 2.08581,3.4832 2.89693,3.45192 0.81113,-0.0313 4.14597,-2.53892 3.5922,-3.2764 -0.55378,-0.73748 -5.79895,-0.92467 -6.48913,-0.17552 z"
         id="path3308"
         inkscape:connector-curvature="0" />
    </g>
    <g
       transform="matrix(1.5,0,0,1.5,185.0548,13.697145)"
       id="g4235">
      <rect
         style="fill:#666666;stroke:#000000;stroke-width:0.99999994;stroke-miterlimit:4;stroke-dasharray:none"
         id="rect4237"
         width="31.991493"
         height="21.085302"
         x="-101.72724"
         y="64.274834" />
      <rect
         style="fill:#666666;stroke:#000000;stroke-width:1.23503101;stroke-miterlimit:4;stroke-dasharray:none"
         id="rect4239"
         width="32.119656"
         height="13.879242"
         x="-3.5135188"
         y="130.06128"
         transform="matrix(1,0,-0.75510134,0.65560809,0,0)" />
      <rect
         style="fill:#f9f9f9;stroke:#000000;stroke-width:0.99999994;stroke-miterlimit:4;stroke-dasharray:none"
         id="rect4241"
         width="26.265741"
         height="14.723357"
         x="-99.091576"
         y="67.455803" />
    </g>
    <g
       id="g4243"
       transform="matrix(1.5,0,0,1.5,185.0548,73.697145)">
      <rect
         y="64.274834"
         x="-101.72724"
         height="21.085302"
         width="31.991493"
         id="rect4245"
         style="fill:#666666;stroke:#000000;stroke-width:0.99999994;stroke-miterlimit:4;stroke-dasharray:none" />
      <rect
         transform="matrix(1,0,-0.75510134,0.65560809,0,0)"
         y="130.06128"
         x="-3.5135188"
         height="13.879242"
         width="32.119656"
         id="rect4247"
         style="fill:#666666;stroke:#000000;stroke-width:1.23503101;stroke-miterlimit:4;stroke-dasharray:none" />
      <rect
         y="67.455803"
         x="-99.091576"
         height="14.723357"
         width="26.265741"
         id="rect4249"
         style="fill:#f9f9f9;stroke:#000000;stroke-width:0.99999994;stroke-miterlimit:4;stroke-dasharray:none" />
    </g>
    <text
       xml:space="preserve"
       style="font-size:12px;font-style:normal;font-weight:normal;line-height:125%;letter-spacing:0px;word-spacing:0px;fill:#000000;fill-opacity:1;stroke:none;font-family:Sans"
       x="86.681641"
       y="62"
       id="text4255"
       sodipodi:linespacing="125%"><tspan
         sodipodi:role="line"
         id="tspan4257"
         x="86.681641"
         y="62">1::1</tspan></text>
    <text
       sodipodi:linespacing="125%"
       id="text4267"
       y="124"
       x="86.681641"
       style="font-size:12px;font-style:normal;font-weight:normal;line-height:125%;letter-spacing:0px;word-spacing:0px;fill:#000000;fill-opacity:1;stroke:none;font-family:Sans"
       xml:space="preserve"><tspan
         y="124"
         x="86.681641"
         id="tspan4269"
         sodipodi:role="line">1::2</tspan></text>
    <text
       xml:space="preserve"
       style="font-size:12px;font-style:normal;font-weight:normal;line-height:125%;letter-spacing:0px;word-spacing:0px;fill:#000000;fill-opacity:1;stroke:none;font-family:Sans"
       x="86.681641"
       y="188"
       id="text4271"
       sodipodi:linespacing="125%"><tspan
         sodipodi:role="line"
         id="tspan4273"
         x="86.681641"
         y="188">1::3</tspan></text>
    <text
       sodipodi:linespacing="125%"
       id="text4275"
       y="86"
       x="251.4082"
       style="font-size:12px;font-style:normal;font-weight:normal;text-align:end;line-height:125%;letter-spacing:0px;word-spacing:0px;text-anchor:end;fill:#000000;fill-opacity:1;stroke:none;font-family:Sans"
       xml:space="preserve"><tspan
         y="86"
         x="251.4082"
         id="tspan4277"
         sodipodi:role="line">1::5</tspan><tspan
         y="101"
         x="251.4082"
         sodipodi:role="line"
         id="tspan4279"
         style="fill:#aa4400">64:ff9b::</tspan></text>
    <text
       xml:space="preserve"
       style="font-size:12px;font-style:normal;font-weight:normal;line-height:125%;letter-spacing:0px;word-spacing:0px;fill:#000000;fill-opacity:1;stroke:none;font-family:Sans"
       x="39.822266"
       y="70"
       id="text4281"
       sodipodi:linespacing="125%"><tspan
         sodipodi:role="line"
         id="tspan4283"
         x="39.822266"
         y="70">HTTP</tspan></text>
  </g>
</svg>
