<?xml version="1.0" encoding="UTF-8" standalone="no"?>
<!-- Created with Inkscape (http://www.inkscape.org/) -->

<svg
   xmlns:dc="http://purl.org/dc/elements/1.1/"
   xmlns:cc="http://creativecommons.org/ns#"
   xmlns:rdf="http://www.w3.org/1999/02/22-rdf-syntax-ns#"
   xmlns:svg="http://www.w3.org/2000/svg"
   xmlns="http://www.w3.org/2000/svg"
   xmlns:xlink="http://www.w3.org/1999/xlink"
   xmlns:sodipodi="http://sodipodi.sourceforge.net/DTD/sodipodi-0.dtd"
   xmlns:inkscape="http://www.inkscape.org/namespaces/inkscape"
   width="512"
   height="256"
   id="svg2"
   version="1.1"
   inkscape:version="0.48.3.1 r9886"
   sodipodi:docname="tut1-prestate.svg">
  <defs
     id="defs4">
    <linearGradient
       id="linearGradient4241">
      <stop
         style="stop-color:#ffd42a;stop-opacity:1;"
         offset="0"
         id="stop4243" />
      <stop
         style="stop-color:#ff981a;stop-opacity:1;"
         offset="1"
         id="stop4245" />
    </linearGradient>
    <radialGradient
       inkscape:collect="always"
       xlink:href="#linearGradient4241"
       id="radialGradient4247"
       cx="129.01476"
       cy="60.59354"
       fx="129.01476"
       fy="60.59354"
       r="4.0921607"
       gradientTransform="matrix(0.81582875,0,0.00435253,0.58103824,23.400473,25.187667)"
       gradientUnits="userSpaceOnUse" />
    <radialGradient
       inkscape:collect="always"
       xlink:href="#linearGradient4241"
       id="radialGradient3178"
       gradientUnits="userSpaceOnUse"
       gradientTransform="matrix(0.81582875,0,0.00435253,0.58103824,23.400473,25.187667)"
       cx="129.01476"
       cy="60.59354"
       fx="129.01476"
       fy="60.59354"
       r="4.0921607" />
  </defs>
  <sodipodi:namedview
     id="base"
     pagecolor="#ffffff"
     bordercolor="#666666"
     borderopacity="1.0"
     inkscape:pageopacity="0.0"
     inkscape:pageshadow="2"
     inkscape:zoom="2.7753906"
     inkscape:cx="256"
     inkscape:cy="128"
     inkscape:document-units="px"
     inkscape:current-layer="layer1"
     showgrid="false"
     inkscape:window-width="1920"
     inkscape:window-height="1029"
     inkscape:window-x="1920"
     inkscape:window-y="24"
     inkscape:window-maximized="1" />
  <metadata
     id="metadata7">
    <rdf:RDF>
      <cc:Work
         rdf:about="">
        <dc:format>image/svg+xml</dc:format>
        <dc:type
           rdf:resource="http://purl.org/dc/dcmitype/StillImage" />
        <dc:title />
      </cc:Work>
    </rdf:RDF>
  </metadata>
  <g
     inkscape:label="Layer 1"
     inkscape:groupmode="layer"
     id="layer1"
     transform="translate(0,-796.36218)"
     style="display:inline">
    <path
       style="fill:none;stroke:#000000;stroke-width:2px;stroke-linecap:butt;stroke-linejoin:miter;stroke-opacity:1"
       d="m 422.46868,900.6567 -16.22582,60.5556"
       id="path4116"
       inkscape:connector-curvature="0" />
    <path
       style="fill:none;stroke:#000000;stroke-width:2px;stroke-linecap:butt;stroke-linejoin:miter;stroke-opacity:1"
       d="m 335.141,855.75542 53.16276,14.24491"
       id="path4076"
       inkscape:connector-curvature="0" />
    <path
       style="fill:none;stroke:#000000;stroke-width:2px;stroke-linecap:butt;stroke-linejoin:miter;stroke-opacity:1"
       d="m 333.37324,854.69476 -42.07286,42.07285 16.11546,60.14369"
       id="path4102"
       inkscape:connector-curvature="0" />
    <path
       style="fill:none;stroke:#000000;stroke-width:2px;stroke-linecap:butt;stroke-linejoin:miter;stroke-opacity:1"
       d="m 306.14962,961.8214 102.53048,0 -52.18582,13.9832"
       id="path4078"
       inkscape:connector-curvature="0" />
    <path
       style="fill:none;stroke:#000000;stroke-width:2px;stroke-linecap:butt;stroke-linejoin:miter;stroke-opacity:1"
       d="m 98.318576,955.9775 103.000004,0 -49.92011,28.8214"
       id="path4070"
       inkscape:connector-curvature="0" />
    <path
       style="fill:none;stroke:#000000;stroke-width:2px;stroke-linecap:butt;stroke-linejoin:miter;stroke-opacity:1"
       d="M 208.56858,907.72755 195.81617,955.3202"
       id="path4074"
       inkscape:connector-curvature="0" />
    <path
       style="fill:none;stroke:#000000;stroke-width:2px;stroke-linecap:butt;stroke-linejoin:miter;stroke-opacity:1"
       d="M 183.31858,863.72755 206.5398,903.9479"
       id="path4068"
       inkscape:connector-curvature="0" />
    <path
       style="fill:none;stroke:#000000;stroke-width:2px;stroke-linecap:butt;stroke-linejoin:miter;stroke-opacity:1"
       d="m 125.06858,860.22755 53,0"
       id="path4066"
       inkscape:connector-curvature="0" />
    <path
       style="fill:none;stroke:#000000;stroke-width:2px;stroke-linecap:butt;stroke-linejoin:miter;stroke-opacity:1"
       d="M 85.818576,897.97755 174.33667,874.25919"
       id="path4072"
       inkscape:connector-curvature="0" />
    <path
       style="fill:none;stroke:#000000;stroke-width:2px;stroke-linecap:butt;stroke-linejoin:miter;stroke-opacity:1"
       d="m 92.049948,874.96425 c 0,0 -8.56342,-30.3015 19.550022,-40.31328 28.11344,-10.01178 41.5283,13.98804 41.5283,13.98804 0,0 15.26456,-21.97572 40.03844,-9.46774 24.77389,12.50798 13.49967,38.22118 13.49967,38.22118 0,0 27.1095,-5.02974 32.40536,20.97862 5.29586,26.00836 -20.09972,39.87553 -20.09972,39.87553 0,0 20.15048,19.8968 4.08086,41.089 -16.06962,21.1922 -39.32419,6.8066 -39.32419,6.8066 0,0 -10.21354,34.242 -42.18128,30.9156 -31.96774,-3.3264 -28.28426,-28.9566 -28.28426,-28.9566 0,0 -23.804222,12.8046 -40.078702,-7.4492 -16.27448,-20.2538 1.10116,-49.18049 1.10116,-49.18049 0,0 -25.16528,-10.73816 -17.9061,-35.4061 7.25918,-24.66794 35.67044,-21.10116 35.67044,-21.10116 z"
       id="path2995"
       inkscape:connector-curvature="0"
       sodipodi:nodetypes="czczczczczczczc" />
    <text
       xml:space="preserve"
       style="font-size:20px;font-style:normal;font-weight:normal;text-align:center;line-height:125%;letter-spacing:0px;word-spacing:0px;text-anchor:middle;fill:#000000;fill-opacity:1;stroke:none;font-family:Sans"
       x="146.50229"
       y="914.40063"
       id="text3769"
       sodipodi:linespacing="125%"><tspan
         sodipodi:role="line"
         id="tspan3771"
         x="146.50229"
         y="914.40063">Internet</tspan><tspan
         sodipodi:role="line"
         x="146.50229"
         y="939.40063"
         id="tspan3792">(IPv4)</tspan></text>
    <text
       sodipodi:linespacing="125%"
       id="text3810"
       y="898.40063"
       x="358.50229"
       style="font-size:20px;font-style:normal;font-weight:normal;text-align:center;line-height:125%;letter-spacing:0px;word-spacing:0px;text-anchor:middle;fill:#000000;fill-opacity:1;stroke:none;font-family:Sans"
       xml:space="preserve"><tspan
         y="898.40063"
         x="358.50229"
         id="tspan3812"
         sodipodi:role="line">Your</tspan><tspan
         y="923.40063"
         x="358.50229"
         sodipodi:role="line"
         id="tspan4106">Network</tspan><tspan
         id="tspan3814"
         y="948.40063"
         x="358.50229"
         sodipodi:role="line">(IPv6)</tspan></text>
    <g
       id="g3970"
       style="display:inline"
       transform="matrix(0.6512923,0,0,0.6512923,94.538952,138.28141)">
      <rect
         style="fill:#666666;stroke:#000000;stroke-width:3.07081771;stroke-miterlimit:4;stroke-dasharray:none"
         id="rect3972"
         width="44"
         height="29"
         x="27.5"
         y="163.5"
         transform="translate(0,924.36218)" />
      <rect
         style="fill:#666666;stroke:#000000;stroke-width:3.79255509;stroke-miterlimit:4;stroke-dasharray:none"
         id="rect3974"
         width="44.17627"
         height="19.089033"
         x="1313.7159"
         y="1703.3608"
         transform="matrix(1,0,-0.75510134,0.65560809,0,0)" />
      <rect
         style="fill:#f9f9f9;stroke:#000000;stroke-width:3.07081771;stroke-miterlimit:4;stroke-dasharray:none"
         id="rect3976"
         width="36.125"
         height="20.25"
         x="31.125"
         y="167.875"
         transform="translate(0,924.36218)" />
    </g>
    <g
       id="g3979"
       transform="matrix(0.73750002,0,0,0.73750002,95.483422,10.194609)">
      <path
         style="fill:#008080;stroke:#000000;stroke-width:2.71186423;stroke-miterlimit:4;stroke-dasharray:none;stroke-dashoffset:0"
         d="m 93.793939,1149.7428 0,20 c 0,5.5229 11.192881,10 25.000001,10 13.80712,0 25,-4.4771 25,-10 l 0,-20 -50.000001,0 z"
         id="path3981"
         inkscape:connector-curvature="0" />
      <path
         sodipodi:type="arc"
         style="fill:#008080;stroke:#000000;stroke-width:2.71186423;stroke-miterlimit:4;stroke-dasharray:none;stroke-dashoffset:0"
         id="path3983"
         sodipodi:cx="0"
         sodipodi:cy="0"
         sodipodi:rx="25"
         sodipodi:ry="10"
         d="M 25,0 C 25,5.5228475 13.807119,10 0,10 -13.807119,10 -25,5.5228475 -25,0 c 0,-5.5228475 11.192881,-10 25,-10 13.807119,0 25,4.4771525 25,10 z"
         transform="translate(118.79394,1149.7556)" />
      <path
         style="fill:none;stroke:#ffffff;stroke-width:2.71186423;stroke-linecap:butt;stroke-linejoin:miter;stroke-miterlimit:4;stroke-opacity:1;stroke-dasharray:none"
         d="m 106.77312,1144.4628 26.79368,7.1794"
         id="path3985"
         inkscape:connector-curvature="0" />
      <path
         inkscape:connector-curvature="0"
         id="path3987"
         d="m 133.5668,1144.4628 -26.79368,7.1794"
         style="fill:none;stroke:#ffffff;stroke-width:2.71186423;stroke-linecap:butt;stroke-linejoin:miter;stroke-miterlimit:4;stroke-opacity:1;stroke-dasharray:none" />
    </g>
    <use
       x="0"
       y="0"
       xlink:href="#g3970"
       id="use3374"
       transform="translate(-40,40)"
       width="256"
       height="128" />
    <use
       height="128"
       width="256"
       transform="translate(-28,100)"
       id="use3387"
       xlink:href="#g3970"
       y="0"
       x="0" />
    <use
       x="0"
       y="0"
       xlink:href="#g3970"
       id="use3389"
       transform="translate(24,124)"
       width="256"
       height="128" />
    <use
       height="128"
       width="256"
       transform="translate(88,44)"
       id="use3391"
       xlink:href="#g3970"
       y="0"
       x="0" />
    <use
       x="0"
       y="0"
       xlink:href="#g3970"
       id="use3393"
       transform="translate(208,-4)"
       width="256"
       height="128" />
    <use
       height="128"
       width="256"
       transform="translate(264,4)"
       id="use3395"
       xlink:href="#g3970"
       y="0"
       x="0" />
    <use
       x="0"
       y="0"
       xlink:href="#g3970"
       id="use3397"
       transform="translate(296,44)"
       width="256"
       height="128" />
    <use
       height="128"
       width="256"
       transform="translate(232,124)"
       id="use3399"
       xlink:href="#g3970"
       y="0"
       x="0" />
    <use
       x="0"
       y="0"
       xlink:href="#g3970"
       id="use3401"
       transform="translate(180,100)"
       width="256"
       height="128" />
    <use
       x="0"
       y="0"
       xlink:href="#path2995"
       id="use3405"
       transform="translate(208,0)"
       width="256"
       height="128" />
    <use
       x="0"
       y="0"
       xlink:href="#g3979"
       id="use3409"
       transform="translate(12,88)"
       width="256"
       height="128" />
    <use
       height="128"
       width="256"
       transform="translate(112,36)"
       id="use3411"
       xlink:href="#g3979"
       y="0"
       x="0" />
  </g>
</svg>
