<?xml version="1.0" encoding="UTF-8" standalone="no"?>
<!-- Created with Inkscape (http://www.inkscape.org/) -->

<svg
   xmlns:dc="http://purl.org/dc/elements/1.1/"
   xmlns:cc="http://creativecommons.org/ns#"
   xmlns:rdf="http://www.w3.org/1999/02/22-rdf-syntax-ns#"
   xmlns:svg="http://www.w3.org/2000/svg"
   xmlns="http://www.w3.org/2000/svg"
   xmlns:xlink="http://www.w3.org/1999/xlink"
   xmlns:sodipodi="http://sodipodi.sourceforge.net/DTD/sodipodi-0.dtd"
   xmlns:inkscape="http://www.inkscape.org/namespaces/inkscape"
   width="640"
   height="192"
   id="svg2"
   version="1.1"
   inkscape:version="0.48.3.1 r9886"
   sodipodi:docname="tut3-setup.svg">
  <defs
     id="defs4">
    <marker
       inkscape:stockid="DotL"
       orient="auto"
       refY="0"
       refX="0"
       id="DotL"
       style="overflow:visible">
      <path
         id="path3922"
         d="m -2.5,-1 c 0,2.76 -2.24,5 -5,5 -2.76,0 -5,-2.24 -5,-5 0,-2.76 2.24,-5 5,-5 2.76,0 5,2.24 5,5 z"
         style="fill-rule:evenodd;stroke:#000000;stroke-width:1pt"
         transform="matrix(0.8,0,0,0.8,5.92,0.8)"
         inkscape:connector-curvature="0" />
    </marker>
    <marker
       inkscape:stockid="Arrow1Mstart"
       orient="auto"
       refY="0"
       refX="0"
       id="Arrow1Mstart"
       style="overflow:visible">
      <path
         id="path3867"
         d="M 0,0 5,-5 -12.5,0 5,5 0,0 z"
         style="fill-rule:evenodd;stroke:#000000;stroke-width:1pt"
         transform="matrix(0.4,0,0,0.4,4,0)"
         inkscape:connector-curvature="0" />
    </marker>
    <marker
       inkscape:stockid="Arrow1Lstart"
       orient="auto"
       refY="0"
       refX="0"
       id="Arrow1Lstart"
       style="overflow:visible">
      <path
         id="path3861"
         d="M 0,0 5,-5 -12.5,0 5,5 0,0 z"
         style="fill-rule:evenodd;stroke:#000000;stroke-width:1pt"
         transform="matrix(0.8,0,0,0.8,10,0)"
         inkscape:connector-curvature="0" />
    </marker>
    <marker
       inkscape:stockid="Arrow2Lstart"
       orient="auto"
       refY="0"
       refX="0"
       id="Arrow2Lstart"
       style="overflow:visible">
      <path
         id="path3879"
         style="fill-rule:evenodd;stroke-width:0.625;stroke-linejoin:round"
         d="M 8.7185878,4.0337352 -2.2072895,0.01601326 8.7185884,-4.0017078 c -1.7454984,2.3720609 -1.7354408,5.6174519 -6e-7,8.035443 z"
         transform="matrix(1.1,0,0,1.1,1.1,0)"
         inkscape:connector-curvature="0" />
    </marker>
    <marker
       inkscape:stockid="Arrow2Lend"
       orient="auto"
       refY="0"
       refX="0"
       id="Arrow2Lend"
       style="overflow:visible">
      <path
         id="path3882"
         style="fill-rule:evenodd;stroke-width:0.625;stroke-linejoin:round"
         d="M 8.7185878,4.0337352 -2.2072895,0.01601326 8.7185884,-4.0017078 c -1.7454984,2.3720609 -1.7354408,5.6174519 -6e-7,8.035443 z"
         transform="matrix(-1.1,0,0,-1.1,-1.1,0)"
         inkscape:connector-curvature="0" />
    </marker>
  </defs>
  <sodipodi:namedview
     id="base"
     pagecolor="#ffffff"
     bordercolor="#666666"
     borderopacity="1.0"
     inkscape:pageopacity="0"
     inkscape:pageshadow="2"
     inkscape:zoom="2.7421875"
     inkscape:cx="320"
     inkscape:cy="96"
     inkscape:document-units="px"
     inkscape:current-layer="layer1"
     showgrid="false"
     inkscape:window-width="1920"
     inkscape:window-height="1029"
     inkscape:window-x="0"
     inkscape:window-y="24"
     inkscape:window-maximized="1"
     inkscape:snap-global="true"
     objecttolerance="20"
     guidetolerance="20"
     showborder="true"
     borderlayer="false"
     inkscape:showpageshadow="false"
     showguides="true"
     inkscape:guide-bbox="true">
    <inkscape:grid
       type="xygrid"
       id="grid6990"
       empspacing="5"
       visible="true"
       enabled="true"
       snapvisiblegridlinesonly="true"
       spacingx="1px"
       spacingy="1px"
       dotted="true" />
  </sodipodi:namedview>
  <metadata
     id="metadata7">
    <rdf:RDF>
      <cc:Work
         rdf:about="">
        <dc:format>image/svg+xml</dc:format>
        <dc:type
           rdf:resource="http://purl.org/dc/dcmitype/StillImage" />
        <dc:title />
      </cc:Work>
    </rdf:RDF>
  </metadata>
  <g
     inkscape:label="Layer 1"
     inkscape:groupmode="layer"
     id="layer1"
     transform="translate(0,-860.36218)">
    <path
       style="fill:none;stroke:#000000;stroke-width:1.5;stroke-linecap:butt;stroke-linejoin:miter;stroke-miterlimit:4;stroke-opacity:1;stroke-dasharray:none"
       d="m 298,982.36218 0,28.50252 110,0 0,-28.50252"
       id="path3976"
       inkscape:connector-curvature="0"
       sodipodi:nodetypes="cccc" />
    <path
       style="fill:none;stroke:#000000;stroke-width:1.5;stroke-linecap:butt;stroke-linejoin:miter;stroke-miterlimit:4;stroke-opacity:1;stroke-dasharray:none"
       d="m 293,982.36218 0,-31.5 105,0 0,31.5"
       id="path3974"
       inkscape:connector-curvature="0"
       sodipodi:nodetypes="cccc" />
    <path
       sodipodi:nodetypes="cc"
       inkscape:connector-curvature="0"
       id="path3172"
       d="m 66,982.3622 254,-2e-5"
       style="fill:none;stroke:#000000;stroke-width:3;stroke-linecap:butt;stroke-linejoin:miter;stroke-miterlimit:4;stroke-opacity:1;stroke-dasharray:none" />
    <path
       style="fill:none;stroke:#000000;stroke-width:1;stroke-linecap:butt;stroke-linejoin:miter;stroke-miterlimit:4;stroke-opacity:1;stroke-dasharray:4,4;stroke-dashoffset:0"
       d="m 350,860.36218 0,192.00002"
       id="path3825"
       inkscape:connector-curvature="0"
       sodipodi:nodetypes="cc" />
    <path
       style="fill:none;stroke:#000000;stroke-width:3;stroke-linecap:butt;stroke-linejoin:miter;stroke-miterlimit:4;stroke-opacity:1;stroke-dasharray:none"
       d="m 376,982.3622 210,0"
       id="path3804"
       inkscape:connector-curvature="0"
       sodipodi:nodetypes="cc" />
    <path
       transform="matrix(0.52645066,0,0,0.52645066,310.89224,888.53081)"
       d="m 122.85714,235.21933 a 48.57143,48.57143 0 1 1 -97.142857,0 48.57143,48.57143 0 1 1 97.142857,0 z"
       sodipodi:ry="48.57143"
       sodipodi:rx="48.57143"
       sodipodi:cy="235.21933"
       sodipodi:cx="74.285713"
       id="path3767"
       style="fill:#ffffff;stroke:#000000;stroke-width:1.6318289;stroke-miterlimit:4;stroke-opacity:1;stroke-dasharray:none"
       sodipodi:type="arc" />
    <text
       xml:space="preserve"
       style="font-size:12px;font-style:normal;font-weight:normal;text-align:center;line-height:125%;letter-spacing:0px;word-spacing:0px;text-anchor:middle;fill:#000000;fill-opacity:1;stroke:none;font-family:Sans"
       x="350.08594"
       y="1004.7802"
       id="text3777"
       sodipodi:linespacing="125%"><tspan
         sodipodi:role="line"
         id="tspan3779"
         x="350.08594"
         y="1004.7802">J</tspan><tspan
         id="tspan3982"
         sodipodi:role="line"
         x="350.08594"
         y="1019.7802">(Jool)</tspan></text>
    <g
       id="g3150"
       transform="translate(-160,209.09375)">
      <path
         sodipodi:nodetypes="cczccc"
         inkscape:connector-curvature="0"
         id="path3789"
         d="m 272.5,764.42468 0,19.84375 c 0,9.52811 12.85831,14.5 23.59375,14.5 10.73544,0 23.46875,-6.29616 23.46875,-16.15625 l 0,-18.1875 z"
         style="fill:#008080;stroke:#000000;stroke-width:1;stroke-miterlimit:4;stroke-opacity:1;stroke-dasharray:none" />
      <path
         transform="matrix(0.48595445,0,0,0.29851852,260.00403,694.04082)"
         d="m 122.85714,235.21933 c 0,26.82526 -21.74617,48.57143 -48.571427,48.57143 -26.82526,0 -48.57143,-21.74617 -48.57143,-48.57143 0,-26.82526 21.74617,-48.57143 48.57143,-48.57143 26.825257,0 48.571427,21.74617 48.571427,48.57143 z"
         sodipodi:ry="48.57143"
         sodipodi:rx="48.57143"
         sodipodi:cy="235.21933"
         sodipodi:cx="74.285713"
         id="path3771"
         style="fill:#008080;stroke:#000000;stroke-width:2.62552762;stroke-miterlimit:4;stroke-opacity:1;stroke-dasharray:none"
         sodipodi:type="arc" />
      <path
         sodipodi:nodetypes="cc"
         inkscape:connector-curvature="0"
         id="path3800"
         d="m 283,757.36218 25,10"
         style="fill:none;stroke:#ffffff;stroke-width:1px;stroke-linecap:butt;stroke-linejoin:miter;stroke-opacity:1" />
      <path
         sodipodi:nodetypes="cc"
         inkscape:connector-curvature="0"
         id="path3802"
         d="m 308,757.36218 -25,10"
         style="fill:none;stroke:#ffffff;stroke-width:1px;stroke-linecap:butt;stroke-linejoin:miter;stroke-opacity:1" />
    </g>
    <text
       xml:space="preserve"
       style="font-size:16px;font-style:normal;font-weight:normal;line-height:125%;letter-spacing:0px;word-spacing:0px;fill:#000000;fill-opacity:1;stroke:none;font-family:Sans"
       x="436.42969"
       y="884.36218"
       id="text7085"
       sodipodi:linespacing="125%"><tspan
         sodipodi:role="line"
         id="tspan7087"
         x="436.42969"
         y="884.36218">IPv4</tspan></text>
    <text
       sodipodi:linespacing="125%"
       id="text7089"
       y="884.13562"
       x="144.42969"
       style="font-size:16px;font-style:normal;font-weight:normal;line-height:125%;letter-spacing:0px;word-spacing:0px;fill:#000000;fill-opacity:1;stroke:none;font-family:Sans"
       xml:space="preserve"><tspan
         y="884.13562"
         x="144.42969"
         id="tspan7091"
         sodipodi:role="line">IPv6</tspan></text>
    <flowRoot
       xml:space="preserve"
       id="flowRoot7105"
       style="font-size:40px;font-style:normal;font-weight:normal;line-height:125%;letter-spacing:0px;word-spacing:0px;fill:#000000;fill-opacity:1;stroke:none;font-family:Sans"><flowRegion
         id="flowRegion7107"><rect
           id="rect7109"
           width="357"
           height="98"
           x="328"
           y="251" /></flowRegion><flowPara
         id="flowPara7111" /></flowRoot>    <use
       x="0"
       y="0"
       xlink:href="#g3150"
       id="use3161"
       transform="translate(374,0)"
       width="512"
       height="332" />
    <text
       xml:space="preserve"
       style="font-size:16px;font-style:normal;font-weight:normal;line-height:125%;letter-spacing:0px;word-spacing:0px;fill:#ffffff;fill-opacity:1;stroke:none;font-family:Sans"
       x="131.54688"
       y="1002.3622"
       id="text3984"
       sodipodi:linespacing="125%"><tspan
         sodipodi:role="line"
         x="131.54688"
         y="1002.3622"
         id="tspan3992">R</tspan></text>
    <text
       xml:space="preserve"
       style="font-size:16px;font-style:normal;font-weight:normal;line-height:125%;letter-spacing:0px;word-spacing:0px;fill:#ffffff;fill-opacity:1;stroke:none;font-family:Sans"
       x="506.13281"
       y="1002.1356"
       id="text3988"
       sodipodi:linespacing="125%"><tspan
         sodipodi:role="line"
         id="tspan3990"
         x="506.13281"
         y="1002.1356">S</tspan></text>
    <path
       sodipodi:nodetypes="cc"
       inkscape:connector-curvature="0"
       id="path4004"
       d="m 198,928.36218 0,54.00002"
       style="fill:none;stroke:#000000;stroke-width:1.5;stroke-linecap:butt;stroke-linejoin:miter;stroke-miterlimit:4;stroke-opacity:1;stroke-dasharray:none" />
    <path
       style="fill:none;stroke:#000000;stroke-width:1.5;stroke-linecap:butt;stroke-linejoin:miter;stroke-miterlimit:4;stroke-opacity:1;stroke-dasharray:none"
       d="m 238,928.36218 0,54.00002"
       id="path4006"
       inkscape:connector-curvature="0"
       sodipodi:nodetypes="cc" />
    <path
       style="fill:none;stroke:#000000;stroke-width:1.5;stroke-linecap:butt;stroke-linejoin:miter;stroke-miterlimit:4;stroke-opacity:1;stroke-dasharray:none"
       d="m 428,928.36218 0,54.00002"
       id="path4034"
       inkscape:connector-curvature="0"
       sodipodi:nodetypes="cc" />
    <path
       sodipodi:nodetypes="cc"
       inkscape:connector-curvature="0"
       id="path4036"
       d="m 468,928.36218 0,54.00002"
       style="fill:none;stroke:#000000;stroke-width:1.5;stroke-linecap:butt;stroke-linejoin:miter;stroke-miterlimit:4;stroke-opacity:1;stroke-dasharray:none" />
    <g
       style="display:inline"
       id="g3887"
       transform="matrix(1.5,0,0,1.5,169.0548,974.05932)">
      <rect
         y="64.274834"
         x="-101.72724"
         height="21.085302"
         width="31.991493"
         id="rect3889"
         style="fill:#666666;stroke:#000000;stroke-width:0.99999994;stroke-miterlimit:4;stroke-dasharray:none" />
      <rect
         transform="matrix(1,0,-0.75510134,0.65560809,0,0)"
         y="130.06128"
         x="-3.5135188"
         height="13.879242"
         width="32.119656"
         id="rect3891"
         style="fill:#666666;stroke:#000000;stroke-width:1.23503101;stroke-miterlimit:4;stroke-dasharray:none" />
      <rect
         y="67.455803"
         x="-99.091576"
         height="14.723357"
         width="26.265741"
         id="rect3893"
         style="fill:#f9f9f9;stroke:#000000;stroke-width:0.99999994;stroke-miterlimit:4;stroke-dasharray:none"
         ry="0" />
    </g>
    <g
       transform="matrix(1.125,0,0,1.125,294.7911,839.63504)"
       id="use4109"
       style="display:inline">
      <rect
         style="fill:#666666;stroke:#000000;stroke-width:0.99999994;stroke-miterlimit:4;stroke-dasharray:none"
         id="rect3149"
         width="31.991493"
         height="21.085302"
         x="-101.72724"
         y="64.274834" />
      <rect
         style="fill:#666666;stroke:#000000;stroke-width:1.23503101;stroke-miterlimit:4;stroke-dasharray:none"
         id="rect3151"
         width="32.119656"
         height="13.879242"
         x="-3.5135188"
         y="130.06128"
         transform="matrix(1,0,-0.75510134,0.65560809,0,0)" />
      <rect
         ry="0"
         style="fill:#f9f9f9;stroke:#000000;stroke-width:0.99999994;stroke-miterlimit:4;stroke-dasharray:none"
         id="rect3153"
         width="26.265741"
         height="14.723357"
         x="-99.091576"
         y="67.455803" />
    </g>
    <g
       transform="matrix(1.125,0,0,1.125,334.7911,839.63504)"
       id="use4111"
       style="display:inline">
      <rect
         style="fill:#666666;stroke:#000000;stroke-width:0.99999994;stroke-miterlimit:4;stroke-dasharray:none"
         id="rect3133"
         width="31.991493"
         height="21.085302"
         x="-101.72724"
         y="64.274834" />
      <rect
         style="fill:#666666;stroke:#000000;stroke-width:1.23503101;stroke-miterlimit:4;stroke-dasharray:none"
         id="rect3135"
         width="32.119656"
         height="13.879242"
         x="-3.5135188"
         y="130.06128"
         transform="matrix(1,0,-0.75510134,0.65560809,0,0)" />
      <rect
         ry="0"
         style="fill:#f9f9f9;stroke:#000000;stroke-width:0.99999994;stroke-miterlimit:4;stroke-dasharray:none"
         id="rect3137"
         width="26.265741"
         height="14.723357"
         x="-99.091576"
         y="67.455803" />
    </g>
    <g
       transform="matrix(1.125,0,0,1.125,524.7911,839.63504)"
       id="use4113"
       style="display:inline">
      <rect
         style="fill:#666666;stroke:#000000;stroke-width:0.99999994;stroke-miterlimit:4;stroke-dasharray:none"
         id="rect3157"
         width="31.991493"
         height="21.085302"
         x="-101.72724"
         y="64.274834" />
      <rect
         style="fill:#666666;stroke:#000000;stroke-width:1.23503101;stroke-miterlimit:4;stroke-dasharray:none"
         id="rect3159"
         width="32.119656"
         height="13.879242"
         x="-3.5135188"
         y="130.06128"
         transform="matrix(1,0,-0.75510134,0.65560809,0,0)" />
      <rect
         ry="0"
         style="fill:#f9f9f9;stroke:#000000;stroke-width:0.99999994;stroke-miterlimit:4;stroke-dasharray:none"
         id="rect3161"
         width="26.265741"
         height="14.723357"
         x="-99.091576"
         y="67.455803" />
    </g>
    <g
       transform="matrix(1.125,0,0,1.125,564.7911,839.63504)"
       id="use4115"
       style="display:inline">
      <rect
         style="fill:#666666;stroke:#000000;stroke-width:0.99999994;stroke-miterlimit:4;stroke-dasharray:none"
         id="rect3141"
         width="31.991493"
         height="21.085302"
         x="-101.72724"
         y="64.274834" />
      <rect
         style="fill:#666666;stroke:#000000;stroke-width:1.23503101;stroke-miterlimit:4;stroke-dasharray:none"
         id="rect3143"
         width="32.119656"
         height="13.879242"
         x="-3.5135188"
         y="130.06128"
         transform="matrix(1,0,-0.75510134,0.65560809,0,0)" />
      <rect
         ry="0"
         style="fill:#f9f9f9;stroke:#000000;stroke-width:0.99999994;stroke-miterlimit:4;stroke-dasharray:none"
         id="rect3145"
         width="26.265741"
         height="14.723357"
         x="-99.091576"
         y="67.455803" />
    </g>
    <text
       xml:space="preserve"
       style="font-size:12px;font-style:normal;font-weight:normal;line-height:125%;letter-spacing:0px;word-spacing:0px;fill:#000000;fill-opacity:1;stroke:none;font-family:Sans"
       x="193.2793"
       y="928.61224"
       id="text4193"
       sodipodi:linespacing="125%"><tspan
         sodipodi:role="line"
         id="tspan4195"
         x="193.2793"
         y="928.61224">C</tspan></text>
    <text
       sodipodi:linespacing="125%"
       id="text4197"
       y="928.61224"
       x="233.2793"
       style="font-size:12px;font-style:normal;font-weight:normal;line-height:125%;letter-spacing:0px;word-spacing:0px;fill:#000000;fill-opacity:1;stroke:none;font-family:Sans"
       xml:space="preserve"><tspan
         y="928.61224"
         x="233.2793"
         id="tspan4199"
         sodipodi:role="line">D</tspan></text>
    <path
       sodipodi:type="arc"
       style="fill:#ffffff;stroke:#000000;stroke-width:1.6318289;stroke-miterlimit:4;stroke-opacity:1;stroke-dasharray:none"
       id="path3123"
       sodipodi:cx="74.285713"
       sodipodi:cy="235.21933"
       sodipodi:rx="48.57143"
       sodipodi:ry="48.57143"
       d="m 122.85714,235.21933 a 48.57143,48.57143 0 1 1 -97.142857,0 48.57143,48.57143 0 1 1 97.142857,0 z"
       transform="matrix(0.52645066,0,0,0.52645066,310.89224,828.53081)" />
    <text
       sodipodi:linespacing="125%"
       id="text3125"
       y="944.78015"
       x="350.08594"
       style="font-size:12px;font-style:normal;font-weight:normal;text-align:center;line-height:125%;letter-spacing:0px;word-spacing:0px;text-anchor:middle;fill:#000000;fill-opacity:1;stroke:none;font-family:Sans"
       xml:space="preserve"><tspan
         y="944.78015"
         x="350.08594"
         id="tspan3127"
         sodipodi:role="line">B</tspan><tspan
         id="tspan3064"
         y="959.78015"
         x="350.08594"
         sodipodi:role="line">(BIND)</tspan></text>
    <path
       style="fill:#ffffff;stroke:#000000;stroke-width:1px;stroke-linecap:butt;stroke-linejoin:miter;stroke-opacity:1;display:inline"
       d="m 28.99265,956.7016 c 0,0 -4.28171,-15.15075 9.775011,-20.15664 14.05672,-5.00589 20.76415,6.99402 20.76415,6.99402 0,0 7.632277,-10.98786 20.019218,-4.73387 12.38694,6.25399 6.74983,19.11059 6.74983,19.11059 0,0 13.55475,-2.51487 16.202681,10.48931 2.64793,13.00418 -10.049861,19.93777 -10.049861,19.93777 0,0 10.075241,9.94842 2.04043,20.54452 -8.03481,10.5961 -19.662091,3.4033 -19.662091,3.4033 0,0 -5.10677,17.121 -21.090637,15.4578 -15.98387,-1.6632 -14.14213,-14.4783 -14.14213,-14.4783 0,0 -11.902111,6.4023 -20.039351,-3.7246 -8.13724,-10.1269 0.55058,-24.59027 0.55058,-24.59027 0,0 -12.5826405,-5.36908 -8.95305,-17.70305 3.62959,-12.33397 17.83522,-10.55058 17.83522,-10.55058 z"
       id="path2995"
       inkscape:connector-curvature="0"
       sodipodi:nodetypes="czczczczczczczc" />
    <path
       sodipodi:nodetypes="czczczczczczczc"
       inkscape:connector-curvature="0"
       id="path3170"
       d="m 558.99265,956.7016 c 0,0 -4.28171,-15.15075 9.77501,-20.15664 14.05672,-5.00589 20.76415,6.99402 20.76415,6.99402 0,0 7.63228,-10.98786 20.01922,-4.73387 12.38694,6.25399 6.74983,19.11059 6.74983,19.11059 0,0 13.55475,-2.51487 16.20268,10.48931 2.64793,13.00418 -10.04986,19.93777 -10.04986,19.93777 0,0 10.07524,9.94842 2.04043,20.54452 -8.03481,10.5961 -19.66209,3.4033 -19.66209,3.4033 0,0 -5.10677,17.121 -21.09064,15.4578 -15.98387,-1.6632 -14.14213,-14.4783 -14.14213,-14.4783 0,0 -11.90211,6.4023 -20.03935,-3.7246 -8.13724,-10.1269 0.55058,-24.59027 0.55058,-24.59027 0,0 -12.58264,-5.36908 -8.95305,-17.70305 3.62959,-12.33397 17.83522,-10.55058 17.83522,-10.55058 z"
       style="fill:#ffffff;stroke:#000000;stroke-width:1px;stroke-linecap:butt;stroke-linejoin:miter;stroke-opacity:1;display:inline" />
    <text
       xml:space="preserve"
       style="font-size:16px;font-style:normal;font-weight:normal;line-height:125%;letter-spacing:0px;word-spacing:0px;fill:#000000;fill-opacity:1;stroke:none;font-family:Sans"
       x="38.429688"
       y="985.13562"
       id="text4007"
       sodipodi:linespacing="125%"><tspan
         sodipodi:role="line"
         id="tspan4009"
         x="38.429688"
         y="985.13562">IPv6</tspan></text>
    <text
       sodipodi:linespacing="125%"
       id="text4011"
       y="985.13562"
       x="568.42969"
       style="font-size:16px;font-style:normal;font-weight:normal;line-height:125%;letter-spacing:0px;word-spacing:0px;fill:#000000;fill-opacity:1;stroke:none;font-family:Sans"
       xml:space="preserve"><tspan
         y="985.13562"
         x="568.42969"
         id="tspan4013"
         sodipodi:role="line">IPv4</tspan></text>
    <text
       xml:space="preserve"
       style="font-size:6px;font-style:normal;font-weight:normal;line-height:125%;letter-spacing:0px;word-spacing:0px;fill:#000000;fill-opacity:1;stroke:none;font-family:Sans"
       x="339.41113"
       y="968.27722"
       id="text3068"
       sodipodi:linespacing="125%"><tspan
         sodipodi:role="line"
         id="tspan3070"
         x="339.41113"
         y="968.27722">DNS64</tspan></text>
    <text
       sodipodi:linespacing="125%"
       id="text3072"
       y="1028.2772"
       x="339.41113"
       style="font-size:6px;font-style:normal;font-weight:normal;line-height:125%;letter-spacing:0px;word-spacing:0px;fill:#000000;fill-opacity:1;stroke:none;font-family:Sans"
       xml:space="preserve"><tspan
         y="1028.2772"
         x="339.41113"
         id="tspan3074"
         sodipodi:role="line">NAT64</tspan></text>
  </g>
</svg>
